# xmcd
#
# Track frame offsets:
# 150
# 36398
# 64328
# 98472
# 125438
# 150387
#
# Disc length: 2228 seconds
#
# Revision: 0
# Processed by: cddbd v1.5.2PL0 Copyright (c) Steve Scherf et al.
# Submitted via: Audion 3.0.2 (http://www.panic.com/audion/)
#
DISCID=4508b206
DTITLE=hamm - K.J.JONESB PHILIPS
DYEAR=1900
DGENRE=
TTITLE0=heven or hell
TTITLE1=west coast blues
TTITLE2=bomb away
TTITLE3=ccccc
TTITLE4=bbhbbb
TTITLE5=ffffftom catto
EXTD=
EXTT0=
EXTT1=
EXTT2=
EXTT3=
EXTT4=
EXTT5=
PLAYORDER=
